<svg xmlns="http://www.w3.org/2000/svg" xmlns:xlink="http://www.w3.org/1999/xlink" contentStyleType="text/css" height="1416px" preserveAspectRatio="none" style="width:1539px;height:1416px;background:#FFFFFF;" version="1.1" viewBox="0 0 1539 1416" width="1539px" zoomAndPan="magnify"><defs/><g><!--class ContentView--><g id="elem_ContentView"><rect codeLine="3" fill="#F1F1F1" height="129.4844" id="ContentView" rx="2.5" ry="2.5" style="stroke:#181818;stroke-width:0.5;" width="215" x="730" y="7"/><ellipse cx="789.25" cy="23" fill="#ADD1B2" rx="11" ry="11" style="stroke:#181818;stroke-width:1.0;"/><path d="M792.2188,28.6406 Q791.6406,28.9375 791,29.0781 Q790.3594,29.2344 789.6563,29.2344 Q787.1563,29.2344 785.8281,27.5938 Q784.5156,25.9375 784.5156,22.8125 Q784.5156,19.6875 785.8281,18.0313 Q787.1563,16.375 789.6563,16.375 Q790.3594,16.375 791,16.5313 Q791.6563,16.6875 792.2188,16.9844 L792.2188,19.7031 Q791.5938,19.125 791,18.8594 Q790.4063,18.5781 789.7813,18.5781 Q788.4375,18.5781 787.75,19.6563 Q787.0625,20.7188 787.0625,22.8125 Q787.0625,24.9063 787.75,25.9844 Q788.4375,27.0469 789.7813,27.0469 Q790.4063,27.0469 791,26.7813 Q791.5938,26.5 792.2188,25.9219 L792.2188,28.6406 Z " fill="#000000"/><text fill="#000000" font-family="sans-serif" font-size="14" lengthAdjust="spacing" textLength="88" x="809.75" y="27.8467">ContentView</text><line style="stroke:#181818;stroke-width:0.5;" x1="731" x2="944" y1="39" y2="39"/><text fill="#000000" font-family="sans-serif" font-size="14" lengthAdjust="spacing" textLength="203" x="736" y="55.9951">-cameraPosition: SCNVector3</text><text fill="#000000" font-family="sans-serif" font-size="14" lengthAdjust="spacing" textLength="191" x="736" y="72.292">-meshPosition: SCNVector3</text><text fill="#000000" font-family="sans-serif" font-size="14" lengthAdjust="spacing" textLength="194" x="736" y="88.5889">-meshRotation: SCNVector3</text><text fill="#000000" font-family="sans-serif" font-size="14" lengthAdjust="spacing" textLength="173" x="736" y="104.8857">-meshScale: SCNVector3</text><line style="stroke:#181818;stroke-width:0.5;" x1="731" x2="944" y1="112.1875" y2="112.1875"/><text fill="#000000" font-family="sans-serif" font-size="14" lengthAdjust="spacing" textLength="156" x="736" y="129.1826">+body() -&gt; some View</text></g><!--class SceneViewContainer--><g id="elem_SceneViewContainer"><rect codeLine="11" fill="#F1F1F1" height="145.7813" id="SceneViewContainer" rx="2.5" ry="2.5" style="stroke:#181818;stroke-width:0.5;" width="365" x="655" y="196.48"/><ellipse cx="761.75" cy="212.48" fill="#ADD1B2" rx="11" ry="11" style="stroke:#181818;stroke-width:1.0;"/><path d="M764.7188,218.1206 Q764.1406,218.4175 763.5,218.5581 Q762.8594,218.7144 762.1563,218.7144 Q759.6563,218.7144 758.3281,217.0738 Q757.0156,215.4175 757.0156,212.2925 Q757.0156,209.1675 758.3281,207.5113 Q759.6563,205.855 762.1563,205.855 Q762.8594,205.855 763.5,206.0113 Q764.1563,206.1675 764.7188,206.4644 L764.7188,209.1831 Q764.0938,208.605 763.5,208.3394 Q762.9063,208.0581 762.2813,208.0581 Q760.9375,208.0581 760.25,209.1363 Q759.5625,210.1988 759.5625,212.2925 Q759.5625,214.3863 760.25,215.4644 Q760.9375,216.5269 762.2813,216.5269 Q762.9063,216.5269 763.5,216.2613 Q764.0938,215.98 764.7188,215.4019 L764.7188,218.1206 Z " fill="#000000"/><text fill="#000000" font-family="sans-serif" font-size="14" lengthAdjust="spacing" textLength="143" x="782.25" y="217.3267">SceneViewContainer</text><line style="stroke:#181818;stroke-width:0.5;" x1="656" x2="1019" y1="228.48" y2="228.48"/><text fill="#000000" font-family="sans-serif" font-size="14" lengthAdjust="spacing" textLength="279" x="661" y="245.4751">-cameraPosition: Binding&lt;SCNVector3&gt;</text><text fill="#000000" font-family="sans-serif" font-size="14" lengthAdjust="spacing" textLength="267" x="661" y="261.772">-meshPosition: Binding&lt;SCNVector3&gt;</text><text fill="#000000" font-family="sans-serif" font-size="14" lengthAdjust="spacing" textLength="270" x="661" y="278.0689">-meshRotation: Binding&lt;SCNVector3&gt;</text><text fill="#000000" font-family="sans-serif" font-size="14" lengthAdjust="spacing" textLength="249" x="661" y="294.3657">-meshScale: Binding&lt;SCNVector3&gt;</text><line style="stroke:#181818;stroke-width:0.5;" x1="656" x2="1019" y1="301.6675" y2="301.6675"/><text fill="#000000" font-family="sans-serif" font-size="14" lengthAdjust="spacing" textLength="306" x="661" y="318.6626">+makeUIView(context: Context) -&gt; SCNView</text><text fill="#000000" font-family="sans-serif" font-size="14" lengthAdjust="spacing" textLength="353" x="661" y="334.9595">+updateUIView(uiView: SCNView, context: Context)</text></g><!--class SceneViewContainer::Coordinator--><g id="elem_SceneViewContainer::Coordinator"><rect codeLine="20" fill="#F1F1F1" height="488.0156" id="SceneViewContainer::Coordinator" rx="2.5" ry="2.5" style="stroke:#181818;stroke-width:0.5;" width="515" x="580" y="402.26"/><ellipse cx="716.25" cy="418.26" fill="#ADD1B2" rx="11" ry="11" style="stroke:#181818;stroke-width:1.0;"/><path d="M719.2188,423.9006 Q718.6406,424.1975 718,424.3381 Q717.3594,424.4944 716.6563,424.4944 Q714.1563,424.4944 712.8281,422.8537 Q711.5156,421.1975 711.5156,418.0725 Q711.5156,414.9475 712.8281,413.2912 Q714.1563,411.635 716.6563,411.635 Q717.3594,411.635 718,411.7912 Q718.6563,411.9475 719.2188,412.2444 L719.2188,414.9631 Q718.5938,414.385 718,414.1194 Q717.4063,413.8381 716.7813,413.8381 Q715.4375,413.8381 714.75,414.9162 Q714.0625,415.9787 714.0625,418.0725 Q714.0625,420.1662 714.75,421.2444 Q715.4375,422.3069 716.7813,422.3069 Q717.4063,422.3069 718,422.0412 Q718.5938,421.76 719.2188,421.1819 L719.2188,423.9006 Z " fill="#000000"/><text fill="#000000" font-family="sans-serif" font-size="14" lengthAdjust="spacing" textLength="234" x="736.75" y="423.1067">SceneViewContainer::Coordinator</text><line style="stroke:#181818;stroke-width:0.5;" x1="581" x2="1094" y1="434.26" y2="434.26"/><text fill="#000000" font-family="sans-serif" font-size="14" lengthAdjust="spacing" textLength="202" x="586" y="451.2551">-parent: SceneViewContainer</text><text fill="#000000" font-family="sans-serif" font-size="14" lengthAdjust="spacing" textLength="157" x="586" y="467.552">-sceneView: SCNView?</text><text fill="#000000" font-family="sans-serif" font-size="14" lengthAdjust="spacing" textLength="280" x="586" y="483.8489">-shapeKeyAnimator: ShapeKeyAnimator?</text><text fill="#000000" font-family="sans-serif" font-size="14" lengthAdjust="spacing" textLength="352" x="586" y="500.1457">-textToSpeechProcessor: TextToSpeechProcessor</text><text fill="#000000" font-family="sans-serif" font-size="14" lengthAdjust="spacing" textLength="172" x="586" y="516.4426">-currentHeadAngle: Float</text><text fill="#000000" font-family="sans-serif" font-size="14" lengthAdjust="spacing" textLength="206" x="586" y="532.7395">-nodeNameRoot: const String</text><text fill="#000000" font-family="sans-serif" font-size="14" lengthAdjust="spacing" textLength="211" x="586" y="549.0364">-nodeNameMesh: const String</text><text fill="#000000" font-family="sans-serif" font-size="14" lengthAdjust="spacing" textLength="226" x="586" y="565.3332">-nodeNameCamera: const String</text><text fill="#000000" font-family="sans-serif" font-size="14" lengthAdjust="spacing" textLength="209" x="586" y="581.6301">-nodeNameHead: const String</text><line style="stroke:#181818;stroke-width:0.5;" x1="581" x2="1094" y1="588.9319" y2="588.9319"/><text fill="#000000" font-family="sans-serif" font-size="14" lengthAdjust="spacing" textLength="207" x="586" y="605.927">+setup(sceneView: SCNView)</text><text fill="#000000" font-family="sans-serif" font-size="14" lengthAdjust="spacing" textLength="268" x="586" y="622.2239">+initializeShapeKeyAnimatorIfNeeded()</text><text fill="#000000" font-family="sans-serif" font-size="14" lengthAdjust="spacing" textLength="149" x="586" y="638.5207">+updateTransforms()</text><text fill="#000000" font-family="sans-serif" font-size="14" lengthAdjust="spacing" textLength="346" x="586" y="654.8176">+applyMaterial(to: SCNNode, textureName: String)</text><text fill="#000000" font-family="sans-serif" font-size="14" lengthAdjust="spacing" textLength="486" x="586" y="671.1145">+renderer(renderer: SCNSceneRenderer, updateAtTime: TimeInterval)</text><text fill="#000000" font-family="sans-serif" font-size="14" lengthAdjust="spacing" textLength="342" x="586" y="687.4114">+printNodeNamesAndMorphers(node: SCNNode)</text><text fill="#000000" font-family="sans-serif" font-size="14" lengthAdjust="spacing" textLength="169" x="586" y="703.7082">+focusCameraOnHead()</text><text fill="#000000" font-family="sans-serif" font-size="14" lengthAdjust="spacing" textLength="503" x="586" y="720.0051">+setupNodeTransformations(node: SCNNode, containerHeight: CGFloat)</text><text fill="#000000" font-family="sans-serif" font-size="14" lengthAdjust="spacing" textLength="191" x="586" y="736.302">+startContinuousRotation()</text><text fill="#000000" font-family="sans-serif" font-size="14" lengthAdjust="spacing" textLength="325" x="586" y="752.5989">+moveHead(to: HeadDirection, degrees: Float)</text><text fill="#000000" font-family="sans-serif" font-size="14" lengthAdjust="spacing" textLength="140" x="586" y="768.8957">+performHeadNod()</text><text fill="#000000" font-family="sans-serif" font-size="14" lengthAdjust="spacing" textLength="167" x="586" y="785.1926">+performHeadShaking()</text><text fill="#000000" font-family="sans-serif" font-size="14" lengthAdjust="spacing" textLength="322" x="586" y="801.4895">+changeShapeKey(notification: NSNotification)</text><text fill="#000000" font-family="sans-serif" font-size="14" lengthAdjust="spacing" textLength="262" x="586" y="817.7864">+readText(notification: NSNotification)</text><text fill="#000000" font-family="sans-serif" font-size="14" lengthAdjust="spacing" textLength="300" x="586" y="834.0832">+moveHeadLeft(notification: NSNotification)</text><text fill="#000000" font-family="sans-serif" font-size="14" lengthAdjust="spacing" textLength="311" x="586" y="850.3801">+moveHeadRight(notification: NSNotification)</text><text fill="#000000" font-family="sans-serif" font-size="14" lengthAdjust="spacing" textLength="319" x="586" y="866.677">+performHeadNod(notification: NSNotification)</text><text fill="#000000" font-family="sans-serif" font-size="14" lengthAdjust="spacing" textLength="346" x="586" y="882.9739">+performHeadShaking(notification: NSNotification)</text></g><!--class ShapeKeyAnimator--><g id="elem_ShapeKeyAnimator"><rect codeLine="50" fill="#F1F1F1" height="210.9688" id="ShapeKeyAnimator" rx="2.5" ry="2.5" style="stroke:#181818;stroke-width:0.5;" width="483" x="7" y="950.28"/><ellipse cx="179.25" cy="966.28" fill="#ADD1B2" rx="11" ry="11" style="stroke:#181818;stroke-width:1.0;"/><path d="M182.2188,971.9206 Q181.6406,972.2175 181,972.3581 Q180.3594,972.5144 179.6563,972.5144 Q177.1563,972.5144 175.8281,970.8738 Q174.5156,969.2175 174.5156,966.0925 Q174.5156,962.9675 175.8281,961.3113 Q177.1563,959.655 179.6563,959.655 Q180.3594,959.655 181,959.8113 Q181.6563,959.9675 182.2188,960.2644 L182.2188,962.9831 Q181.5938,962.405 181,962.1394 Q180.4063,961.8581 179.7813,961.8581 Q178.4375,961.8581 177.75,962.9363 Q177.0625,963.9988 177.0625,966.0925 Q177.0625,968.1863 177.75,969.2644 Q178.4375,970.3269 179.7813,970.3269 Q180.4063,970.3269 181,970.0613 Q181.5938,969.78 182.2188,969.2019 L182.2188,971.9206 Z " fill="#000000"/><text fill="#000000" font-family="sans-serif" font-size="14" lengthAdjust="spacing" textLength="130" x="199.75" y="971.1267">ShapeKeyAnimator</text><line style="stroke:#181818;stroke-width:0.5;" x1="8" x2="489" y1="982.28" y2="982.28"/><text fill="#000000" font-family="sans-serif" font-size="14" lengthAdjust="spacing" textLength="160" x="13" y="999.2751">-morpher: SCNMorpher</text><text fill="#000000" font-family="sans-serif" font-size="14" lengthAdjust="spacing" textLength="219" x="13" y="1015.572">-syllableMapper: SyllableMapper</text><text fill="#000000" font-family="sans-serif" font-size="14" lengthAdjust="spacing" textLength="264" x="13" y="1031.8689">-asyncAnimationDuration: TimeInterval</text><text fill="#000000" font-family="sans-serif" font-size="14" lengthAdjust="spacing" textLength="256" x="13" y="1048.1657">-syncAnimationDuration: TimeInterval</text><text fill="#000000" font-family="sans-serif" font-size="14" lengthAdjust="spacing" textLength="372" x="13" y="1064.4626">-asyncFrequencyRange: ClosedRange&lt;TimeInterval&gt;</text><line style="stroke:#181818;stroke-width:0.5;" x1="8" x2="489" y1="1071.7644" y2="1071.7644"/><text fill="#000000" font-family="sans-serif" font-size="14" lengthAdjust="spacing" textLength="442" x="13" y="1088.7595">+animateSyllables(syllables: [String], totalDuration: TimeInterval)</text><text fill="#000000" font-family="sans-serif" font-size="14" lengthAdjust="spacing" textLength="400" x="13" y="1105.0564">+animateShapeKey(named: String, duration: TimeInterval)</text><text fill="#000000" font-family="sans-serif" font-size="14" lengthAdjust="spacing" textLength="471" x="13" y="1121.3532">+animateMultipleShapeKeys(named: [String], duration: TimeInterval)</text><text fill="#000000" font-family="sans-serif" font-size="14" lengthAdjust="spacing" textLength="170" x="13" y="1137.6501">+startAsyncAnimations()</text><text fill="#000000" font-family="sans-serif" font-size="14" lengthAdjust="spacing" textLength="54" x="13" y="1153.947">+blink()</text></g><!--class TextToSpeechProcessor--><g id="elem_TextToSpeechProcessor"><rect codeLine="63" fill="#F1F1F1" height="113.1875" id="TextToSpeechProcessor" rx="2.5" ry="2.5" style="stroke:#181818;stroke-width:0.5;" width="625" x="525" y="999.17"/><ellipse cx="747.75" cy="1015.17" fill="#ADD1B2" rx="11" ry="11" style="stroke:#181818;stroke-width:1.0;"/><path d="M750.7188,1020.8106 Q750.1406,1021.1075 749.5,1021.2481 Q748.8594,1021.4044 748.1563,1021.4044 Q745.6563,1021.4044 744.3281,1019.7637 Q743.0156,1018.1075 743.0156,1014.9825 Q743.0156,1011.8575 744.3281,1010.2012 Q745.6563,1008.545 748.1563,1008.545 Q748.8594,1008.545 749.5,1008.7012 Q750.1563,1008.8575 750.7188,1009.1544 L750.7188,1011.8731 Q750.0938,1011.295 749.5,1011.0294 Q748.9063,1010.7481 748.2813,1010.7481 Q746.9375,1010.7481 746.25,1011.8262 Q745.5625,1012.8887 745.5625,1014.9825 Q745.5625,1017.0762 746.25,1018.1544 Q746.9375,1019.2169 748.2813,1019.2169 Q748.9063,1019.2169 749.5,1018.9512 Q750.0938,1018.67 750.7188,1018.0919 L750.7188,1020.8106 Z " fill="#000000"/><text fill="#000000" font-family="sans-serif" font-size="14" lengthAdjust="spacing" textLength="171" x="768.25" y="1020.0167">TextToSpeechProcessor</text><line style="stroke:#181818;stroke-width:0.5;" x1="526" x2="1149" y1="1031.17" y2="1031.17"/><text fill="#000000" font-family="sans-serif" font-size="14" lengthAdjust="spacing" textLength="299" x="531" y="1048.1651">-speechSynthesizer: AVSpeechSynthesizer</text><line style="stroke:#181818;stroke-width:0.5;" x1="526" x2="1149" y1="1055.4669" y2="1055.4669"/><text fill="#000000" font-family="sans-serif" font-size="14" lengthAdjust="spacing" textLength="460" x="531" y="1072.462">+processAndReadText(text: String, animator: ShapeKeyAnimator?)</text><text fill="#000000" font-family="sans-serif" font-size="14" lengthAdjust="spacing" textLength="377" x="531" y="1088.7589">+estimateSpeechDuration(text: String) -&gt; TimeInterval</text><text fill="#000000" font-family="sans-serif" font-size="14" lengthAdjust="spacing" textLength="613" x="531" y="1105.0557">+speechSynthesizer(synthesizer: AVSpeechSynthesizer, didFinish: AVSpeechUtterance)</text></g><!--class SyllableMapper--><g id="elem_SyllableMapper"><rect codeLine="70" fill="#F1F1F1" height="64.2969" id="SyllableMapper" rx="2.5" ry="2.5" style="stroke:#181818;stroke-width:0.5;" width="355" x="71" y="1221.25"/><ellipse cx="192.75" cy="1237.25" fill="#ADD1B2" rx="11" ry="11" style="stroke:#181818;stroke-width:1.0;"/><path d="M195.7188,1242.8906 Q195.1406,1243.1875 194.5,1243.3281 Q193.8594,1243.4844 193.1563,1243.4844 Q190.6563,1243.4844 189.3281,1241.8438 Q188.0156,1240.1875 188.0156,1237.0625 Q188.0156,1233.9375 189.3281,1232.2813 Q190.6563,1230.625 193.1563,1230.625 Q193.8594,1230.625 194.5,1230.7813 Q195.1563,1230.9375 195.7188,1231.2344 L195.7188,1233.9531 Q195.0938,1233.375 194.5,1233.1094 Q193.9063,1232.8281 193.2813,1232.8281 Q191.9375,1232.8281 191.25,1233.9063 Q190.5625,1234.9688 190.5625,1237.0625 Q190.5625,1239.1563 191.25,1240.2344 Q191.9375,1241.2969 193.2813,1241.2969 Q193.9063,1241.2969 194.5,1241.0313 Q195.0938,1240.75 195.7188,1240.1719 L195.7188,1242.8906 Z " fill="#000000"/><text fill="#000000" font-family="sans-serif" font-size="14" lengthAdjust="spacing" textLength="103" x="213.25" y="1242.0967">SyllableMapper</text><line style="stroke:#181818;stroke-width:0.5;" x1="72" x2="425" y1="1253.25" y2="1253.25"/><line style="stroke:#181818;stroke-width:0.5;" x1="72" x2="425" y1="1261.25" y2="1261.25"/><text fill="#000000" font-family="sans-serif" font-size="14" font-style="italic" lengthAdjust="spacing" textLength="343" x="77" y="1278.2451">+mapSyllableToMorpher(syllable: String) -&gt; String</text></g><!--class DefaultSyllableMapper--><g id="elem_DefaultSyllableMapper"><rect codeLine="74" fill="#F1F1F1" height="64.2969" id="DefaultSyllableMapper" rx="2.5" ry="2.5" style="stroke:#181818;stroke-width:0.5;" width="355" x="71" y="1345.54"/><ellipse cx="168.25" cy="1361.54" fill="#ADD1B2" rx="11" ry="11" style="stroke:#181818;stroke-width:1.0;"/><path d="M171.2188,1367.1806 Q170.6406,1367.4775 170,1367.6181 Q169.3594,1367.7744 168.6563,1367.7744 Q166.1563,1367.7744 164.8281,1366.1338 Q163.5156,1364.4775 163.5156,1361.3525 Q163.5156,1358.2275 164.8281,1356.5713 Q166.1563,1354.915 168.6563,1354.915 Q169.3594,1354.915 170,1355.0713 Q170.6563,1355.2275 171.2188,1355.5244 L171.2188,1358.2431 Q170.5938,1357.665 170,1357.3994 Q169.4063,1357.1181 168.7813,1357.1181 Q167.4375,1357.1181 166.75,1358.1963 Q166.0625,1359.2588 166.0625,1361.3525 Q166.0625,1363.4463 166.75,1364.5244 Q167.4375,1365.5869 168.7813,1365.5869 Q169.4063,1365.5869 170,1365.3213 Q170.5938,1365.04 171.2188,1364.4619 L171.2188,1367.1806 Z " fill="#000000"/><text fill="#000000" font-family="sans-serif" font-size="14" lengthAdjust="spacing" textLength="152" x="188.75" y="1366.3867">DefaultSyllableMapper</text><line style="stroke:#181818;stroke-width:0.5;" x1="72" x2="425" y1="1377.54" y2="1377.54"/><line style="stroke:#181818;stroke-width:0.5;" x1="72" x2="425" y1="1385.54" y2="1385.54"/><text fill="#000000" font-family="sans-serif" font-size="14" lengthAdjust="spacing" textLength="343" x="77" y="1402.5351">+mapSyllableToMorpher(syllable: String) -&gt; String</text></g><!--class SyllableProcessor--><g id="elem_SyllableProcessor"><rect codeLine="78" fill="#F1F1F1" height="80.5938" id="SyllableProcessor" rx="2.5" ry="2.5" style="stroke:#181818;stroke-width:0.5;" width="347" x="1185" y="1015.46"/><ellipse cx="1293.75" cy="1031.46" fill="#ADD1B2" rx="11" ry="11" style="stroke:#181818;stroke-width:1.0;"/><path d="M1296.7188,1037.1006 Q1296.1406,1037.3975 1295.5,1037.5381 Q1294.8594,1037.6944 1294.1563,1037.6944 Q1291.6563,1037.6944 1290.3281,1036.0538 Q1289.0156,1034.3975 1289.0156,1031.2725 Q1289.0156,1028.1475 1290.3281,1026.4913 Q1291.6563,1024.835 1294.1563,1024.835 Q1294.8594,1024.835 1295.5,1024.9913 Q1296.1563,1025.1475 1296.7188,1025.4444 L1296.7188,1028.1631 Q1296.0938,1027.585 1295.5,1027.3194 Q1294.9063,1027.0381 1294.2813,1027.0381 Q1292.9375,1027.0381 1292.25,1028.1163 Q1291.5625,1029.1788 1291.5625,1031.2725 Q1291.5625,1033.3663 1292.25,1034.4444 Q1292.9375,1035.5069 1294.2813,1035.5069 Q1294.9063,1035.5069 1295.5,1035.2413 Q1296.0938,1034.96 1296.7188,1034.3819 L1296.7188,1037.1006 Z " fill="#000000"/><text fill="#000000" font-family="sans-serif" font-size="14" lengthAdjust="spacing" textLength="121" x="1314.25" y="1036.3067">SyllableProcessor</text><line style="stroke:#181818;stroke-width:0.5;" x1="1186" x2="1531" y1="1047.46" y2="1047.46"/><line style="stroke:#181818;stroke-width:0.5;" x1="1186" x2="1531" y1="1055.46" y2="1055.46"/><text fill="#000000" font-family="sans-serif" font-size="14" lengthAdjust="spacing" textLength="335" x="1191" y="1072.4551">+processTextToSyllables(text: String) -&gt; [String]</text><text fill="#000000" font-family="sans-serif" font-size="14" lengthAdjust="spacing" textLength="293" x="1191" y="1088.752">+splitIntoSyllables(word: String) -&gt; [String]</text></g><!--link ContentView to SceneViewContainer--><g id="link_ContentView_SceneViewContainer"><path codeLine="83" d="M837.5,136.8 C837.5,155.74 837.5,170.61 837.5,190.04 " fill="none" id="ContentView-to-SceneViewContainer" style="stroke:#181818;stroke-width:1.0;"/><polygon fill="#181818" points="837.5,196.04,841.5,187.04,837.5,191.04,833.5,187.04,837.5,196.04" style="stroke:#181818;stroke-width:1.0;"/></g><!--link SceneViewContainer to SceneViewContainer::Coordinator--><g id="link_SceneViewContainer_SceneViewContainer::Coordinator"><path codeLine="84" d="M837.5,342.66 C837.5,360.53 837.5,374.68 837.5,395.89 " fill="none" id="SceneViewContainer-to-SceneViewContainer::Coordinator" style="stroke:#181818;stroke-width:1.0;"/><polygon fill="#181818" points="837.5,401.89,841.5,392.89,837.5,396.89,833.5,392.89,837.5,401.89" style="stroke:#181818;stroke-width:1.0;"/></g><!--link SceneViewContainer::Coordinator to ShapeKeyAnimator--><g id="link_SceneViewContainer::Coordinator_ShapeKeyAnimator"><path codeLine="85" d="M579.58,825.71 C518.34,868.08 459.8841,908.5161 405.1641,946.3761 " fill="none" id="SceneViewContainer::Coordinator-to-ShapeKeyAnimator" style="stroke:#181818;stroke-width:1.0;"/><polygon fill="#181818" points="400.23,949.79,409.9071,947.9586,404.3418,946.9451,405.3553,941.3798,400.23,949.79" style="stroke:#181818;stroke-width:1.0;"/></g><!--link SceneViewContainer::Coordinator to TextToSpeechProcessor--><g id="link_SceneViewContainer::Coordinator_TextToSpeechProcessor"><path codeLine="86" d="M837.5,890.49 C837.5,931 837.5,963.34 837.5,992.78 " fill="none" id="SceneViewContainer::Coordinator-to-TextToSpeechProcessor" style="stroke:#181818;stroke-width:1.0;"/><polygon fill="#181818" points="837.5,998.78,841.5,989.78,837.5,993.78,833.5,989.78,837.5,998.78" style="stroke:#181818;stroke-width:1.0;"/></g><!--link ShapeKeyAnimator to SyllableMapper--><g id="link_ShapeKeyAnimator_SyllableMapper"><path codeLine="87" d="M248.5,1161.74 C248.5,1183.31 248.5,1198.42 248.5,1214.83 " fill="none" id="ShapeKeyAnimator-to-SyllableMapper" style="stroke:#181818;stroke-width:1.0;"/><polygon fill="#181818" points="248.5,1220.83,252.5,1211.83,248.5,1215.83,244.5,1211.83,248.5,1220.83" style="stroke:#181818;stroke-width:1.0;"/></g><!--reverse link SyllableMapper to DefaultSyllableMapper--><g id="link_SyllableMapper_DefaultSyllableMapper"><path codeLine="88" d="M248.5,1303.89 C248.5,1322.15 248.5,1327.06 248.5,1345.3 " fill="none" id="SyllableMapper-backto-DefaultSyllableMapper" style="stroke:#181818;stroke-width:1.0;"/><polygon fill="none" points="248.5,1285.89,242.5,1303.89,254.5,1303.89,248.5,1285.89" style="stroke:#181818;stroke-width:1.0;"/></g><!--link SceneViewContainer::Coordinator to SyllableProcessor--><g id="link_SceneViewContainer::Coordinator_SyllableProcessor"><path codeLine="89" d="M1095.33,848.93 C1176.26,912.23 1252.8136,972.1039 1303.1836,1011.4939 " fill="none" id="SceneViewContainer::Coordinator-to-SyllableProcessor" style="stroke:#181818;stroke-width:1.0;"/><polygon fill="#181818" points="1307.91,1015.19,1303.2845,1006.4949,1303.9713,1012.1099,1298.3563,1012.7968,1307.91,1015.19" style="stroke:#181818;stroke-width:1.0;"/></g><!--SRC=[fLRHRjem57tdA_8O14YJzeQgJeogAzfW5M5zcVPWd0jOJUpCTjgohl- -QySsaAGfrNW0OfzxVNpkyOtLFUC5aIIFQ4QKccWjsRhKCAE29-mFH1zwFJiJJGNNmFKTWyVekHVXPnHHaeCajq8npGGVHybqSGTK2_dH0N9GkpUcbqAJZkc4aWmQSuDeBT9zt8z6bv4IEKI6Lk_5SqqeS313XZHX7EIhb3ypdZA-lJWiSDdAlHjts4GtpktcDT0Woiaz_9WPwZ4rWZ_fSQNyaxQRDH5cgnMwB5AYFRvavcVi8SEeaQ1BeF5uAeH4LWJf1BNG6bZpSGlU0PIV2Ej-yZCxKi1Ns4yuoqrE1DH6FD9mMuca0A2xMoaeA6NWgxPXNyLI6c8tGD89tnf9hpD1j9lb8eK5rdaf17976PIE4ZGstzO0Son99s1gtT89CHnQ08D8WIwBk2bGtyqpZjOY6HwokZ2ppG8WXJJkdzHv9GbN6o5p5IP8KMJxESv9p1HhOHTP8BEXLRMKbkBO4VDHA5qA4cJi_zWmM-Eb6ncwDITwnKm2ypr35ya7alaq1URK2oU3cl1qBcIn0wbYeqsWuk4RGKjL2VgT6zN2BgnI1XfsQ0zJBKzbQ6k-6s3RdJ7s5rlsa4SJgOr36Iz5gVoX3Elaui6Momfb_bmnYSSF8SCeXQq4KCv8OOiW3Hs3HGfnop3M3bleDapH7U7RK57SWMORHbrpM2IBe-T3EKXgp7uMsE_X6spU5x0qafqLKTlqEqEy8DrXXqvKytveFNbb9bj-PopVMVPPHjOPpD7z5d3ox414xJcjakA2LwLqH8wD7FATYxH9hoNyBe7J_T9K6asO2GMfVRWuZl4jdTZKu5cgsFD7i_si3kOlFAvergnzyNujKV0MdgNKdsrqy3d1ypBJhCX24kMp79Xqvx5dR78YsQ4ThJF6x-EZwhRsy51YPSUJFTSxKDW7iPQJkwG-6BgD3SSsi_JdfNgx-VsJrryqdXyeNKber_1gd-InRzb6wGTDhbZ6Rjwe94kliSkRTuoV_w4nA-4KZe_0YN-TEizahRGaLB_OMq7XGIlX3aEmqGbpzmOAkQzWGx3ahKlyJruVLYzgg9EhV31zGsDlkA1lnZHgVXJoYFUHzX2aSNmT7Hc2pHjAoosm7Nboz-czTJUoEMeEEoke_KBJQ80s_sbBgvNlukzer5xPyyZNQ_SF]--></g></svg>